<mxfile host="app.diagrams.net" modified="2024-04-15T15:45:41.893Z" agent="Mozilla/5.0 (Windows NT 10.0; Win64; x64) AppleWebKit/537.36 (KHTML, like Gecko) Chrome/123.0.0.0 Safari/537.36" etag="JhyCOHa0MMvlZ2x6IGoA" version="24.2.2" type="github">
  <diagram name="Page-1" id="Pbo5KVp6b8nxELfhfUgX">
    <mxGraphModel dx="9385" dy="2830" grid="1" gridSize="10" guides="1" tooltips="1" connect="1" arrows="1" fold="1" page="1" pageScale="1" pageWidth="827" pageHeight="1169" math="0" shadow="0">
      <root>
        <mxCell id="0" />
        <mxCell id="1" parent="0" />
        <mxCell id="FsBlV04iI5ymBEi-vBTH-1" value="&lt;p style=&quot;margin:0px;margin-top:4px;text-align:center;&quot;&gt;&lt;i&gt;&amp;lt;&amp;lt;Interface&amp;gt;&amp;gt;&lt;/i&gt;&lt;br&gt;&lt;b&gt;IGameEntity&lt;/b&gt;&lt;/p&gt;&lt;hr size=&quot;1&quot;&gt;&lt;p style=&quot;margin:0px;margin-left:4px;&quot;&gt;+ DrawOrder { get; } : int&lt;/p&gt;&lt;p style=&quot;margin:0px;margin-left:4px;&quot;&gt;+ Update(gameTime : GameTime, screen : Screen) : void&lt;/p&gt;&lt;p style=&quot;margin:0px;margin-left:4px;&quot;&gt;+ Draw(gameTime : GameTime) : void&lt;/p&gt;" style="verticalAlign=top;align=left;overflow=fill;fontSize=12;fontFamily=Helvetica;html=1;whiteSpace=wrap;" vertex="1" parent="1">
          <mxGeometry x="-2720" y="530" width="470" height="110" as="geometry" />
        </mxCell>
        <mxCell id="FsBlV04iI5ymBEi-vBTH-2" value="&lt;p style=&quot;margin:0px;margin-top:4px;text-align:center;&quot;&gt;&lt;b&gt;SpriteAnimation&lt;/b&gt;&lt;/p&gt;&lt;hr size=&quot;1&quot;&gt;&lt;p style=&quot;margin:0px;margin-left:4px;&quot;&gt;- _frames: List&amp;lt;SpriteAnimationFrame&amp;gt;&lt;/p&gt;&lt;hr size=&quot;1&quot;&gt;&lt;p style=&quot;margin:0px;margin-left:4px;&quot;&gt;+ IsPlaying { get; private set; } : bool&lt;/p&gt;&lt;p style=&quot;margin:0px;margin-left:4px;&quot;&gt;+ PlaybackProgress { get; private set; } : float&lt;/p&gt;&lt;p style=&quot;margin:0px;margin-left:4px;&quot;&gt;&lt;br&gt;&lt;/p&gt;&lt;p style=&quot;margin:0px;margin-left:4px;&quot;&gt;+ AddFrame(sprite : Sprite, timeStamp : float) : void&lt;/p&gt;&lt;p style=&quot;margin:0px;margin-left:4px;&quot;&gt;+ Update(gameTime : GameTime) : void&lt;/p&gt;&lt;p style=&quot;margin:0px;margin-left:4px;&quot;&gt;+ Play() : void&lt;/p&gt;&lt;p style=&quot;margin:0px;margin-left:4px;&quot;&gt;+ Stop() : void&lt;/p&gt;&lt;p style=&quot;margin:0px;margin-left:4px;&quot;&gt;+ GetFrame (index : int) : SpriteAnimationFrame&lt;/p&gt;" style="verticalAlign=top;align=left;overflow=fill;fontSize=12;fontFamily=Helvetica;html=1;whiteSpace=wrap;" vertex="1" parent="1">
          <mxGeometry x="-3380" y="1530" width="320" height="200" as="geometry" />
        </mxCell>
        <mxCell id="FsBlV04iI5ymBEi-vBTH-3" value="&lt;p style=&quot;margin:0px;margin-top:4px;text-align:center;&quot;&gt;&lt;b style=&quot;border-color: var(--border-color);&quot;&gt;SpriteAnimationFrame&lt;/b&gt;&lt;br&gt;&lt;/p&gt;&lt;hr size=&quot;1&quot;&gt;&lt;p style=&quot;margin:0px;margin-left:4px;&quot;&gt;&amp;nbsp;&lt;/p&gt;&lt;hr size=&quot;1&quot;&gt;&lt;p style=&quot;margin:0px;margin-left:4px;&quot;&gt;+ Sprite { get; set; } : Sprite&lt;/p&gt;&lt;p style=&quot;margin:0px;margin-left:4px;&quot;&gt;+ TimeStamp { get; } : float&lt;/p&gt;" style="verticalAlign=top;align=left;overflow=fill;fontSize=12;fontFamily=Helvetica;html=1;whiteSpace=wrap;" vertex="1" parent="1">
          <mxGeometry x="-2950" y="1529" width="160" height="200" as="geometry" />
        </mxCell>
        <mxCell id="FsBlV04iI5ymBEi-vBTH-4" value="1" style="endArrow=open;html=1;endSize=12;startArrow=diamondThin;startSize=14;startFill=0;edgeStyle=orthogonalEdgeStyle;align=left;verticalAlign=bottom;rounded=0;exitX=1.01;exitY=0.421;exitDx=0;exitDy=0;exitPerimeter=0;entryX=-0.013;entryY=0.669;entryDx=0;entryDy=0;entryPerimeter=0;" edge="1" parent="1" source="FsBlV04iI5ymBEi-vBTH-2" target="FsBlV04iI5ymBEi-vBTH-3">
          <mxGeometry x="-1" y="3" relative="1" as="geometry">
            <mxPoint x="-3000" y="1580" as="sourcePoint" />
            <mxPoint x="-2840" y="1580" as="targetPoint" />
          </mxGeometry>
        </mxCell>
        <mxCell id="FsBlV04iI5ymBEi-vBTH-5" value="&lt;p style=&quot;margin:0px;margin-top:4px;text-align:center;&quot;&gt;&lt;b&gt;Button&lt;/b&gt;&lt;/p&gt;&lt;hr size=&quot;1&quot;&gt;&lt;p style=&quot;margin:0px;margin-left:4px;&quot;&gt;&lt;/p&gt;&lt;span style=&quot;border-color: var(--border-color); text-align: center;&quot;&gt;&lt;b&gt;&amp;nbsp;&lt;/b&gt;- _text: string&lt;br&gt;&amp;nbsp;+ Color {get; private set;} : Color&lt;br&gt;&lt;/span&gt;&lt;div&gt;&lt;div&gt;&lt;span style=&quot;border-color: var(--border-color); text-align: center;&quot;&gt;&amp;nbsp;&lt;span style=&quot;text-align: left;&quot;&gt;+ DrawOrder { get; } : int&lt;/span&gt;&lt;/span&gt;&lt;/div&gt;&lt;div&gt;&lt;div style=&quot;text-align: left;&quot;&gt;&amp;nbsp;+ Position {get; private set;} : Point&lt;/div&gt;&lt;div style=&quot;text-align: left;&quot;&gt;&amp;nbsp;+ Width {get; private set;} : int&lt;/div&gt;&lt;div style=&quot;text-align: left;&quot;&gt;&amp;nbsp;+ Height {get; private set;} : int&amp;nbsp;&lt;/div&gt;&lt;hr size=&quot;1&quot;&gt;&lt;p style=&quot;margin: 0px 0px 0px 4px;&quot;&gt;+ Hover () : void &amp;lt;&amp;lt;virtual&amp;gt;&amp;gt;&lt;/p&gt;&lt;p style=&quot;margin: 0px 0px 0px 4px;&quot;&gt;+ Press () : void &amp;lt;&amp;lt;virtual&amp;gt;&amp;gt;&lt;/p&gt;&lt;p style=&quot;margin: 0px 0px 0px 4px;&quot;&gt;+ Update(gameTime : GameTime, screen : Screen) : void&lt;/p&gt;&lt;p style=&quot;margin: 0px 0px 0px 4px;&quot;&gt;+ Draw(gameTime : GameTime) : void&lt;/p&gt;&lt;/div&gt;&lt;/div&gt;" style="verticalAlign=top;align=left;overflow=fill;fontSize=12;fontFamily=Helvetica;html=1;whiteSpace=wrap;" vertex="1" parent="1">
          <mxGeometry x="-2730" y="820" width="510" height="230" as="geometry" />
        </mxCell>
        <mxCell id="FsBlV04iI5ymBEi-vBTH-6" value="" style="endArrow=open;html=1;endSize=12;startArrow=diamondThin;startSize=14;startFill=0;edgeStyle=orthogonalEdgeStyle;align=left;verticalAlign=bottom;rounded=0;exitX=0;exitY=0.75;exitDx=0;exitDy=0;entryX=1;entryY=0.5;entryDx=0;entryDy=0;" edge="1" parent="1" source="FsBlV04iI5ymBEi-vBTH-5" target="FsBlV04iI5ymBEi-vBTH-8">
          <mxGeometry x="-0.4484" y="-10" relative="1" as="geometry">
            <mxPoint x="-2370" y="1090" as="sourcePoint" />
            <mxPoint x="-2830" y="1180" as="targetPoint" />
            <mxPoint as="offset" />
            <Array as="points" />
          </mxGeometry>
        </mxCell>
        <mxCell id="FsBlV04iI5ymBEi-vBTH-7" value="" style="endArrow=block;startArrow=none;endFill=0;startFill=0;endSize=8;html=1;verticalAlign=bottom;dashed=1;labelBackgroundColor=none;rounded=0;entryX=0.5;entryY=0;entryDx=0;entryDy=0;exitX=0.5;exitY=1;exitDx=0;exitDy=0;" edge="1" parent="1" source="FsBlV04iI5ymBEi-vBTH-1" target="FsBlV04iI5ymBEi-vBTH-5">
          <mxGeometry width="160" relative="1" as="geometry">
            <mxPoint x="-2435" y="950" as="sourcePoint" />
            <mxPoint x="-2650" y="750" as="targetPoint" />
            <Array as="points" />
          </mxGeometry>
        </mxCell>
        <mxCell id="FsBlV04iI5ymBEi-vBTH-8" value="&lt;p style=&quot;margin:0px;margin-top:4px;text-align:center;&quot;&gt;&lt;b style=&quot;border-color: var(--border-color);&quot;&gt;Sprite&lt;/b&gt;&lt;br&gt;&lt;/p&gt;&lt;hr size=&quot;1&quot;&gt;&lt;p style=&quot;margin:0px;margin-left:4px;&quot;&gt;&amp;nbsp;+ Texture {get; private set;} : Texture2D&lt;/p&gt;&lt;p style=&quot;margin:0px;margin-left:4px;&quot;&gt;&amp;nbsp;+ X {get; private set;} : int&lt;/p&gt;&lt;p style=&quot;margin:0px;margin-left:4px;&quot;&gt;&amp;nbsp;+ Y {get; private set;} : int&lt;/p&gt;&lt;p style=&quot;margin:0px;margin-left:4px;&quot;&gt;&amp;nbsp;+ Width {get; private set;} : int&lt;/p&gt;&lt;p style=&quot;margin:0px;margin-left:4px;&quot;&gt;&amp;nbsp;+ Height {get; private set;} : int&lt;/p&gt;&lt;hr size=&quot;1&quot;&gt;&lt;p style=&quot;margin:0px;margin-left:4px;&quot;&gt;+ Draw(spriteBatch : SpriteBatch) : void&lt;br&gt;&lt;/p&gt;" style="verticalAlign=top;align=left;overflow=fill;fontSize=12;fontFamily=Helvetica;html=1;whiteSpace=wrap;" vertex="1" parent="1">
          <mxGeometry x="-3120" y="1050" width="260" height="200" as="geometry" />
        </mxCell>
        <mxCell id="FsBlV04iI5ymBEi-vBTH-9" value="" style="endArrow=open;html=1;endSize=12;startArrow=diamondThin;startSize=14;startFill=0;edgeStyle=orthogonalEdgeStyle;align=left;verticalAlign=bottom;rounded=0;entryX=0.5;entryY=1;entryDx=0;entryDy=0;exitX=0.5;exitY=0;exitDx=0;exitDy=0;" edge="1" parent="1" source="FsBlV04iI5ymBEi-vBTH-3" target="FsBlV04iI5ymBEi-vBTH-8">
          <mxGeometry x="-0.4484" y="-10" relative="1" as="geometry">
            <mxPoint x="-2740" y="1230" as="sourcePoint" />
            <mxPoint x="-2810" y="1417" as="targetPoint" />
            <mxPoint as="offset" />
            <Array as="points" />
          </mxGeometry>
        </mxCell>
        <mxCell id="FsBlV04iI5ymBEi-vBTH-10" value="&lt;p style=&quot;margin:0px;margin-top:4px;text-align:center;&quot;&gt;&lt;b&gt;Scene&lt;/b&gt;&lt;/p&gt;&lt;hr size=&quot;1&quot;&gt;&lt;p style=&quot;margin:0px;margin-left:4px;&quot;&gt;&lt;/p&gt;&lt;span style=&quot;border-color: var(--border-color); text-align: center;&quot;&gt;&amp;nbsp;+ Background {get; private set;} : Sprite&lt;br&gt;&lt;/span&gt;&lt;div&gt;&lt;div&gt;&lt;span style=&quot;border-color: var(--border-color); text-align: center;&quot;&gt;&amp;nbsp;&lt;span style=&quot;text-align: left;&quot;&gt;+ DrawOrder { get; } : int&lt;/span&gt;&lt;/span&gt;&lt;/div&gt;&lt;div&gt;&lt;div style=&quot;text-align: left;&quot;&gt;&amp;nbsp;- _entities : List&amp;lt;IGameEntity&amp;gt;&lt;br&gt;&lt;/div&gt;&lt;div style=&quot;text-align: left;&quot;&gt;&amp;nbsp;+ Entities {get;} : ReadOnlyList&amp;lt;_entities&amp;gt;&lt;/div&gt;&lt;hr size=&quot;1&quot;&gt;&lt;p style=&quot;margin: 0px 0px 0px 4px;&quot;&gt;&lt;span style=&quot;background-color: initial;&quot;&gt;+ Update(gameTime : GameTime, screen : Screen) : void&lt;/span&gt;&lt;br&gt;&lt;/p&gt;&lt;p style=&quot;margin: 0px 0px 0px 4px;&quot;&gt;+ Draw(gameTime : GameTime) : void&lt;/p&gt;&lt;/div&gt;&lt;/div&gt;" style="verticalAlign=top;align=left;overflow=fill;fontSize=12;fontFamily=Helvetica;html=1;whiteSpace=wrap;" vertex="1" parent="1">
          <mxGeometry x="-3590" y="540" width="510" height="230" as="geometry" />
        </mxCell>
      </root>
    </mxGraphModel>
  </diagram>
</mxfile>
